<svg width="21" height="21" viewBox="0 0 21 21" fill="none" xmlns="http://www.w3.org/2000/svg">
<path d="M15.375 7.33337C15.375 5.97414 14.835 4.67058 13.8739 3.70945C12.9128 2.74833 11.6092 2.20837 10.25 2.20837C8.89077 2.20837 7.5872 2.74833 6.62608 3.70945C5.66495 4.67058 5.125 5.97414 5.125 7.33337C5.125 13.3125 2.5625 15.0209 2.5625 15.0209H17.9375C17.9375 15.0209 15.375 13.3125 15.375 7.33337Z" stroke="#BFB2FF" stroke-width="2" stroke-linecap="round" stroke-linejoin="round"/>
<path d="M11.7277 18.4375C11.5775 18.6964 11.362 18.9113 11.1026 19.0606C10.8433 19.21 10.5493 19.2886 10.25 19.2886C9.9507 19.2886 9.65667 19.21 9.39733 19.0606C9.138 18.9113 8.92245 18.6964 8.77228 18.4375" stroke="#BFB2FF" stroke-width="2" stroke-linecap="round" stroke-linejoin="round"/>
</svg>
