<svg width="21" height="21" viewBox="0 0 21 21" fill="none" xmlns="http://www.w3.org/2000/svg">
<path d="M15.375 6.83331C15.375 5.47408 14.835 4.17051 13.8739 3.20939C12.9128 2.24827 11.6092 1.70831 10.25 1.70831C8.89077 1.70831 7.5872 2.24827 6.62608 3.20939C5.66495 4.17051 5.125 5.47408 5.125 6.83331C5.125 12.8125 2.5625 14.5208 2.5625 14.5208H17.9375C17.9375 14.5208 15.375 12.8125 15.375 6.83331Z" stroke="white" stroke-width="2" stroke-linecap="round" stroke-linejoin="round"/>
<path d="M11.7277 17.9375C11.5775 18.1964 11.362 18.4113 11.1026 18.5606C10.8433 18.71 10.5493 18.7886 10.25 18.7886C9.9507 18.7886 9.65667 18.71 9.39733 18.5606C9.138 18.4113 8.92245 18.1964 8.77228 17.9375" stroke="white" stroke-width="2" stroke-linecap="round" stroke-linejoin="round"/>
</svg>
