<svg width="21" height="21" viewBox="0 0 21 21" fill="none" xmlns="http://www.w3.org/2000/svg">
<path d="M17.9375 13.6667V6.83333C17.9372 6.53375 17.8581 6.23952 17.7082 5.98016C17.5583 5.72079 17.3428 5.50541 17.0833 5.35562L11.1042 1.93896C10.8445 1.78902 10.5499 1.71008 10.25 1.71008C9.95013 1.71008 9.65553 1.78902 9.39583 1.93896L3.41667 5.35562C3.15722 5.50541 2.94173 5.72079 2.79181 5.98016C2.64189 6.23952 2.56281 6.53375 2.5625 6.83333V13.6667C2.56281 13.9662 2.64189 14.2605 2.79181 14.5198C2.94173 14.7792 3.15722 14.9946 3.41667 15.1444L9.39583 18.561C9.65553 18.711 9.95013 18.7899 10.25 18.7899C10.5499 18.7899 10.8445 18.711 11.1042 18.561L17.0833 15.1444C17.3428 14.9946 17.5583 14.7792 17.7082 14.5198C17.8581 14.2605 17.9372 13.9662 17.9375 13.6667Z" stroke="#BFB2FF" stroke-width="2" stroke-linecap="round" stroke-linejoin="round"/>
<path d="M2.79315 5.94501L10.25 10.2585L17.7069 5.94501" stroke="#BFB2FF" stroke-width="2" stroke-linecap="round" stroke-linejoin="round"/>
<path d="M10.25 18.86V10.25" stroke="#BFB2FF" stroke-width="2" stroke-linecap="round" stroke-linejoin="round"/>
</svg>
