<svg width="21" height="21" viewBox="0 0 21 21" fill="none" xmlns="http://www.w3.org/2000/svg">
<path d="M17.9375 14.1667V7.33339C17.9372 7.03381 17.8581 6.73958 17.7082 6.48022C17.5583 6.22085 17.3428 6.00547 17.0833 5.85568L11.1042 2.43902C10.8445 2.28908 10.5499 2.21014 10.25 2.21014C9.95013 2.21014 9.65553 2.28908 9.39583 2.43902L3.41667 5.85568C3.15722 6.00547 2.94173 6.22085 2.79181 6.48022C2.64189 6.73958 2.56281 7.03381 2.5625 7.33339V14.1667C2.56281 14.4663 2.64189 14.7605 2.79181 15.0199C2.94173 15.2793 3.15722 15.4946 3.41667 15.6444L9.39583 19.0611C9.65553 19.211 9.95013 19.29 10.25 19.29C10.5499 19.29 10.8445 19.211 11.1042 19.0611L17.0833 15.6444C17.3428 15.4946 17.5583 15.2793 17.7082 15.0199C17.8581 14.7605 17.9372 14.4663 17.9375 14.1667Z" stroke="white" stroke-width="2" stroke-linecap="round" stroke-linejoin="round"/>
<path d="M2.79315 6.44507L10.25 10.7586L17.7069 6.44507" stroke="white" stroke-width="2" stroke-linecap="round" stroke-linejoin="round"/>
<path d="M10.25 19.3601V10.7501" stroke="white" stroke-width="2" stroke-linecap="round" stroke-linejoin="round"/>
</svg>
