<svg width="21" height="21" viewBox="0 0 21 21" fill="none" xmlns="http://www.w3.org/2000/svg">
<g id="file-text-purple">
<path id="Union" fill-rule="evenodd" clip-rule="evenodd" d="M3.20988 2.0015C3.71779 1.49359 4.40666 1.20825 5.12496 1.20825H11.9583H11.9583C12.2364 1.20825 12.488 1.32176 12.6692 1.50497L17.7866 6.62237C17.9698 6.80362 18.0833 7.05518 18.0833 7.33325L18.0833 7.33965V17.5833C18.0833 18.3015 17.798 18.9904 17.29 19.4983C16.7821 20.0062 16.0933 20.2916 15.375 20.2916H5.12496C4.40666 20.2916 3.71779 20.0062 3.20988 19.4983C2.70197 18.9904 2.41663 18.3015 2.41663 17.5833V3.91659C2.41663 3.19829 2.70197 2.50942 3.20988 2.0015ZM5.12496 3.20825H10.9583V7.33325C10.9583 7.88554 11.406 8.33325 11.9583 8.33325H16.0833V17.5833C16.0833 17.7711 16.0087 17.9513 15.8758 18.0841C15.743 18.217 15.5628 18.2916 15.375 18.2916H5.12496C4.9371 18.2916 4.75693 18.217 4.62409 18.0841C4.49125 17.9513 4.41663 17.7711 4.41663 17.5833V3.91659C4.41663 3.72872 4.49125 3.54856 4.62409 3.41572C4.75693 3.28288 4.9371 3.20825 5.12496 3.20825ZM12.9583 4.62249L14.6691 6.33325H12.9583V4.62249ZM6.83331 10.6042C6.28103 10.6042 5.83331 11.052 5.83331 11.6042C5.83331 12.1565 6.28103 12.6042 6.83331 12.6042H13.6666C14.2189 12.6042 14.6666 12.1565 14.6666 11.6042C14.6666 11.052 14.2189 10.6042 13.6666 10.6042H6.83331ZM5.83331 15.0208C5.83331 14.4685 6.28103 14.0208 6.83331 14.0208H13.6666C14.2189 14.0208 14.6666 14.4685 14.6666 15.0208C14.6666 15.573 14.2189 16.0208 13.6666 16.0208H6.83331C6.28103 16.0208 5.83331 15.573 5.83331 15.0208ZM6.83331 7.1875C6.28103 7.1875 5.83331 7.63522 5.83331 8.1875C5.83331 8.73978 6.28103 9.1875 6.83331 9.1875H8.54165C9.09393 9.1875 9.54165 8.73978 9.54165 8.1875C9.54165 7.63522 9.09393 7.1875 8.54165 7.1875H6.83331Z" fill="#BFB2FF"/>
</g>
</svg>
