<svg width="21" height="21" viewBox="0 0 21 21" fill="none" xmlns="http://www.w3.org/2000/svg">
<g clip-path="url(#clip0_9_409)">
<path fill-rule="evenodd" clip-rule="evenodd" d="M3.20988 1.50157C3.71779 0.993654 4.40666 0.708313 5.12496 0.708313H11.9583H11.9583C12.2364 0.708313 12.4879 0.821805 12.6692 1.00499L17.7866 6.12243C17.9698 6.30368 18.0833 6.55524 18.0833 6.83331L18.0833 6.83971V17.0833C18.0833 17.8016 17.798 18.4905 17.29 18.9984C16.7821 19.5063 16.0933 19.7916 15.375 19.7916H5.12496C4.40666 19.7916 3.71779 19.5063 3.20988 18.9984C2.70197 18.4905 2.41663 17.8016 2.41663 17.0833V3.41665C2.41663 2.69835 2.70197 2.00948 3.20988 1.50157ZM5.12496 2.70831H10.9583V6.83331C10.9583 7.3856 11.406 7.83331 11.9583 7.83331H16.0833V17.0833C16.0833 17.2712 16.0087 17.4513 15.8758 17.5842C15.743 17.717 15.5628 17.7916 15.375 17.7916H5.12496C4.9371 17.7916 4.75693 17.717 4.62409 17.5842C4.49125 17.4513 4.41663 17.2712 4.41663 17.0833V3.41665C4.41663 3.22878 4.49125 3.04862 4.62409 2.91578C4.75693 2.78294 4.9371 2.70831 5.12496 2.70831ZM12.9583 4.12255L14.6691 5.83331H12.9583V4.12255ZM6.83331 10.1043C6.28103 10.1043 5.83331 10.552 5.83331 11.1043C5.83331 11.6566 6.28103 12.1043 6.83331 12.1043H13.6666C14.2189 12.1043 14.6666 11.6566 14.6666 11.1043C14.6666 10.552 14.2189 10.1043 13.6666 10.1043H6.83331ZM5.83331 14.5208C5.83331 13.9685 6.28103 13.5208 6.83331 13.5208H13.6666C14.2189 13.5208 14.6666 13.9685 14.6666 14.5208C14.6666 15.0731 14.2189 15.5208 13.6666 15.5208H6.83331C6.28103 15.5208 5.83331 15.0731 5.83331 14.5208ZM6.83331 6.68756C6.28103 6.68756 5.83331 7.13528 5.83331 7.68756C5.83331 8.23985 6.28103 8.68756 6.83331 8.68756H8.54165C9.09393 8.68756 9.54165 8.23985 9.54165 7.68756C9.54165 7.13528 9.09393 6.68756 8.54165 6.68756H6.83331Z" fill="white"/>
</g>
<defs>
<clipPath id="clip0_9_409">
<rect width="20.5" height="20.5" fill="white"/>
</clipPath>
</defs>
</svg>
