<svg width="21" height="21" viewBox="0 0 21 21" fill="none" xmlns="http://www.w3.org/2000/svg">
<path d="M10.25 19.2916C14.9674 19.2916 18.7916 15.4674 18.7916 10.75C18.7916 6.03255 14.9674 2.20831 10.25 2.20831C5.53255 2.20831 1.70831 6.03255 1.70831 10.75C1.70831 15.4674 5.53255 19.2916 10.25 19.2916Z" stroke="white" stroke-width="2" stroke-linecap="round" stroke-linejoin="round"/>
<path d="M7.7644 8.1875C7.96522 7.61663 8.3616 7.13526 8.88332 6.82863C9.40505 6.52201 10.0185 6.40992 10.6149 6.51223C11.2114 6.61454 11.7524 6.92463 12.1421 7.38759C12.5318 7.85056 12.7451 8.43651 12.7442 9.04166C12.7442 10.75 10.1817 11.6042 10.1817 11.6042" stroke="white" stroke-width="2" stroke-linecap="round" stroke-linejoin="round"/>
<path d="M10.25 15.0208H10.2585" stroke="white" stroke-width="2" stroke-linecap="round" stroke-linejoin="round"/>
</svg>
