<svg width="21" height="21" viewBox="0 0 21 21" fill="none" xmlns="http://www.w3.org/2000/svg">
<path d="M10.25 18.7916C14.9674 18.7916 18.7916 14.9674 18.7916 10.25C18.7916 5.53255 14.9674 1.70831 10.25 1.70831C5.53255 1.70831 1.70831 5.53255 1.70831 10.25C1.70831 14.9674 5.53255 18.7916 10.25 18.7916Z" stroke="#BFB2FF" stroke-width="2" stroke-linecap="round" stroke-linejoin="round"/>
<path d="M7.7644 7.6875C7.96522 7.11663 8.3616 6.63526 8.88332 6.32863C9.40505 6.02201 10.0185 5.90992 10.6149 6.01223C11.2114 6.11454 11.7524 6.42463 12.1421 6.88759C12.5318 7.35056 12.7451 7.93651 12.7442 8.54166C12.7442 10.25 10.1817 11.1042 10.1817 11.1042" stroke="#BFB2FF" stroke-width="2" stroke-linecap="round" stroke-linejoin="round"/>
<path d="M10.25 14.5209H10.2585" stroke="#BFB2FF" stroke-width="2" stroke-linecap="round" stroke-linejoin="round"/>
</svg>
