<svg width="53" height="53" viewBox="0 0 53 53" fill="none" xmlns="http://www.w3.org/2000/svg">
<path d="M33.9308 32.2164C34.6609 34.1212 34.4228 35.899 33.2165 37.5498C32.0101 39.2006 30.3117 40.026 28.1213 40.026C27.0736 40.026 26.0819 39.7561 25.146 39.2164C24.2089 38.6768 23.5181 37.9625 23.0736 37.0736C20.4387 37.4545 18.2565 36.7796 16.527 35.0488C14.7962 33.3193 14.0895 31.1053 14.407 28.4069C13.4546 27.8672 12.7244 27.1295 12.2165 26.1936C11.7086 25.2564 11.4546 24.1847 11.4546 22.9783C11.4546 21.0418 12.3359 19.478 14.0984 18.2869C15.8597 17.0971 17.5816 16.8514 19.2641 17.5498L22.2165 18.7879C22.8514 17.8037 23.6927 17.0018 24.7403 16.3822C25.7879 15.7637 26.9149 15.4228 28.1213 15.3593V11.4545H30.9784V15.7403C32.153 16.0895 33.1212 16.6368 33.8832 17.3822C34.6451 18.1288 35.2958 19.1688 35.8355 20.5022H40.026V23.3593H36.1212C36.0578 24.5656 35.7327 25.6926 35.146 26.7403C34.5581 27.7879 33.772 28.6291 32.7879 29.2641L33.9308 32.2164ZM22.1213 33.3593C22.1213 32.5022 22.193 31.6691 22.3365 30.8602C22.4787 30.0501 22.6927 29.2641 22.9784 28.5022C22.2482 28.8514 21.4622 29.0971 20.6203 29.2393C19.7797 29.3828 18.9467 29.4228 18.1213 29.3593C18.1213 30.5974 18.4781 31.5739 19.1917 32.2888C19.9066 33.0025 20.8832 33.3593 22.1213 33.3593ZM18.5974 25.5498C19.6133 25.5498 20.5105 25.4228 21.2889 25.1688C22.066 24.9149 23.0736 24.4069 24.3117 23.645L18.5974 21.2641C17.6768 20.8831 16.8914 20.8907 16.2413 21.2869C15.5898 21.6844 15.2641 22.3117 15.2641 23.1688C15.2641 23.9942 15.534 24.5974 16.0736 24.9783C16.6133 25.3593 17.4546 25.5498 18.5974 25.5498ZM28.1213 36.2164C28.9149 36.2164 29.5574 35.9383 30.0489 35.3822C30.5416 34.8272 30.6609 34.2482 30.407 33.645L27.8355 27.1688C27.2324 28.1847 26.7644 29.2006 26.4317 30.2164C26.0978 31.2323 25.9308 32.1529 25.9308 32.9783C25.9308 34.026 26.1136 34.8272 26.4793 35.3822C26.8438 35.9383 27.3911 36.2164 28.1213 36.2164ZM31.2641 25.645C31.5816 25.3276 31.8355 24.9066 32.026 24.3822C32.2165 23.859 32.3117 23.3117 32.3117 22.7403C32.3117 21.7244 31.9784 20.8672 31.3117 20.1688C30.6451 19.4704 29.8197 19.1212 28.8355 19.1212C28.2641 19.1212 27.7244 19.2164 27.2165 19.4069C26.7086 19.5974 26.28 19.8672 25.9308 20.2164L29.6451 21.9307L31.2641 25.645Z" fill="#BFB2FF"/>
</svg>
