<svg width="21" height="21" viewBox="0 0 21 21" fill="none" xmlns="http://www.w3.org/2000/svg">
<g clip-path="url(#clip0_28_585)">
<path d="M10.25 13.3125C11.6652 13.3125 12.8125 12.1652 12.8125 10.75C12.8125 9.33477 11.6652 8.1875 10.25 8.1875C8.83477 8.1875 7.6875 9.33477 7.6875 10.75C7.6875 12.1652 8.83477 13.3125 10.25 13.3125Z" stroke="#BFB2FF" stroke-width="2" stroke-linecap="round" stroke-linejoin="round"/>
<path d="M16.5709 13.3125C16.4572 13.5702 16.4232 13.8559 16.4735 14.133C16.5237 14.4101 16.6558 14.6658 16.8527 14.8671L16.904 14.9184C17.0628 15.077 17.1888 15.2654 17.2748 15.4728C17.3608 15.6802 17.405 15.9025 17.405 16.127C17.405 16.3515 17.3608 16.5738 17.2748 16.7812C17.1888 16.9886 17.0628 17.177 16.904 17.3356C16.7453 17.4945 16.5569 17.6205 16.3495 17.7065C16.1421 17.7924 15.9198 17.8367 15.6953 17.8367C15.4708 17.8367 15.2485 17.7924 15.0411 17.7065C14.8338 17.6205 14.6453 17.4945 14.4867 17.3356L14.4354 17.2844C14.2341 17.0875 13.9784 16.9554 13.7014 16.9051C13.4243 16.8549 13.1385 16.8888 12.8809 17.0025C12.6282 17.1108 12.4128 17.2906 12.261 17.5197C12.1092 17.7489 12.0278 18.0175 12.0267 18.2923V18.4375C12.0267 18.8906 11.8467 19.3251 11.5263 19.6455C11.206 19.9659 10.7714 20.1459 10.3184 20.1459C9.86528 20.1459 9.43075 19.9659 9.11038 19.6455C8.79 19.3251 8.61002 18.8906 8.61002 18.4375V18.3606C8.60341 18.0779 8.51189 17.8037 8.34737 17.5737C8.18285 17.3437 7.95294 17.1685 7.68752 17.0709C7.42989 16.9572 7.1441 16.9232 6.86702 16.9735C6.58993 17.0237 6.33425 17.1558 6.13294 17.3527L6.08169 17.404C5.92303 17.5628 5.73462 17.6888 5.52723 17.7748C5.31984 17.8608 5.09754 17.905 4.87304 17.905C4.64854 17.905 4.42624 17.8608 4.21885 17.7748C4.01146 17.6888 3.82305 17.5628 3.6644 17.404C3.50556 17.2453 3.37956 17.0569 3.29358 16.8495C3.20761 16.6421 3.16336 16.4198 3.16336 16.1953C3.16336 15.9708 3.20761 15.7485 3.29358 15.5411C3.37956 15.3338 3.50556 15.1453 3.6644 14.9867L3.71565 14.9354C3.91256 14.7341 4.04466 14.4784 4.0949 14.2014C4.14514 13.9243 4.11122 13.6385 3.99752 13.3809C3.88924 13.1282 3.70946 12.9128 3.48029 12.761C3.25113 12.6092 2.98259 12.5278 2.70773 12.5267H2.56252C2.10944 12.5267 1.67492 12.3467 1.35455 12.0263C1.03417 11.706 0.854187 11.2714 0.854187 10.8184C0.854187 10.3653 1.03417 9.93075 1.35455 9.61038C1.67492 9.29 2.10944 9.11002 2.56252 9.11002H2.6394C2.92212 9.10341 3.19632 9.01189 3.42634 8.84737C3.65636 8.68285 3.83157 8.45294 3.92919 8.18752C4.04289 7.92989 4.07681 7.6441 4.02657 7.36702C3.97632 7.08993 3.84423 6.83425 3.64731 6.63294L3.59606 6.58169C3.43723 6.42303 3.31122 6.23462 3.22525 6.02723C3.13928 5.81984 3.09503 5.59754 3.09503 5.37304C3.09503 5.14854 3.13928 4.92624 3.22525 4.71885C3.31122 4.51146 3.43723 4.32305 3.59606 4.1644C3.75472 4.00556 3.94313 3.87956 4.15052 3.79358C4.35791 3.70761 4.58021 3.66336 4.80471 3.66336C5.02921 3.66336 5.25151 3.70761 5.4589 3.79358C5.66629 3.87956 5.8547 4.00556 6.01335 4.1644L6.0646 4.21565C6.26591 4.41256 6.5216 4.54466 6.79868 4.5949C7.07577 4.64514 7.36156 4.61122 7.61919 4.49752H7.68752C7.94016 4.38924 8.15562 4.20946 8.30738 3.98029C8.45915 3.75113 8.54059 3.48259 8.54169 3.20773V3.06252C8.54169 2.60944 8.72167 2.17492 9.04205 1.85455C9.36242 1.53417 9.79694 1.35419 10.25 1.35419C10.7031 1.35419 11.1376 1.53417 11.458 1.85455C11.7784 2.17492 11.9584 2.60944 11.9584 3.06252V3.1394C11.9594 3.41425 12.0409 3.6828 12.1927 3.91196C12.3444 4.14112 12.5599 4.32091 12.8125 4.42919C13.0702 4.54289 13.3559 4.57681 13.633 4.52657C13.9101 4.47632 14.1658 4.34423 14.3671 4.14731L14.4184 4.09606C14.577 3.93723 14.7654 3.81122 14.9728 3.72525C15.1802 3.63928 15.4025 3.59503 15.627 3.59503C15.8515 3.59503 16.0738 3.63928 16.2812 3.72525C16.4886 3.81122 16.677 3.93723 16.8356 4.09606C16.9945 4.25472 17.1205 4.44313 17.2065 4.65052C17.2924 4.85791 17.3367 5.08021 17.3367 5.30471C17.3367 5.52921 17.2924 5.75151 17.2065 5.9589C17.1205 6.16629 16.9945 6.3547 16.8356 6.51335L16.7844 6.5646C16.5875 6.76591 16.4554 7.0216 16.4051 7.29868C16.3549 7.57577 16.3888 7.86156 16.5025 8.11919V8.18752C16.6108 8.44016 16.7906 8.65562 17.0197 8.80738C17.2489 8.95915 17.5175 9.04059 17.7923 9.04169H17.9375C18.3906 9.04169 18.8251 9.22167 19.1455 9.54205C19.4659 9.86242 19.6459 10.2969 19.6459 10.75C19.6459 11.2031 19.4659 11.6376 19.1455 11.958C18.8251 12.2784 18.3906 12.4584 17.9375 12.4584H17.8606C17.5858 12.4594 17.3172 12.5409 17.0881 12.6927C16.8589 12.8444 16.6791 13.0599 16.5709 13.3125V13.3125Z" stroke="#BFB2FF" stroke-width="2" stroke-linecap="round" stroke-linejoin="round"/>
</g>
<defs>
<clipPath id="clip0_28_585">
<rect width="20.5" height="20.5" fill="white" transform="translate(0 0.5)"/>
</clipPath>
</defs>
</svg>
