<svg width="21" height="21" viewBox="0 0 21 21" fill="none" xmlns="http://www.w3.org/2000/svg">
<g clip-path="url(#clip0_9_411)">
<path d="M10.25 12.8125C11.6652 12.8125 12.8125 11.6652 12.8125 10.25C12.8125 8.83477 11.6652 7.6875 10.25 7.6875C8.83477 7.6875 7.6875 8.83477 7.6875 10.25C7.6875 11.6652 8.83477 12.8125 10.25 12.8125Z" stroke="white" stroke-width="2" stroke-linecap="round" stroke-linejoin="round"/>
<path d="M16.5709 12.8125C16.4572 13.0702 16.4232 13.3559 16.4735 13.633C16.5237 13.9101 16.6558 14.1658 16.8527 14.3671L16.904 14.4184C17.0628 14.577 17.1888 14.7654 17.2748 14.9728C17.3608 15.1802 17.405 15.4025 17.405 15.627C17.405 15.8515 17.3608 16.0738 17.2748 16.2812C17.1888 16.4886 17.0628 16.677 16.904 16.8356C16.7453 16.9945 16.5569 17.1205 16.3495 17.2065C16.1421 17.2924 15.9198 17.3367 15.6953 17.3367C15.4708 17.3367 15.2485 17.2924 15.0411 17.2065C14.8338 17.1205 14.6453 16.9945 14.4867 16.8356L14.4354 16.7844C14.2341 16.5875 13.9784 16.4554 13.7014 16.4051C13.4243 16.3549 13.1385 16.3888 12.8809 16.5025C12.6282 16.6108 12.4128 16.7906 12.261 17.0197C12.1092 17.2489 12.0278 17.5175 12.0267 17.7923V17.9375C12.0267 18.3906 11.8467 18.8251 11.5263 19.1455C11.206 19.4659 10.7714 19.6459 10.3184 19.6459C9.86528 19.6459 9.43075 19.4659 9.11038 19.1455C8.79 18.8251 8.61002 18.3906 8.61002 17.9375V17.8606C8.60341 17.5779 8.51189 17.3037 8.34737 17.0737C8.18285 16.8437 7.95294 16.6685 7.68752 16.5709C7.42989 16.4572 7.1441 16.4232 6.86702 16.4735C6.58993 16.5237 6.33425 16.6558 6.13294 16.8527L6.08169 16.904C5.92303 17.0628 5.73462 17.1888 5.52723 17.2748C5.31984 17.3608 5.09754 17.405 4.87304 17.405C4.64854 17.405 4.42624 17.3608 4.21885 17.2748C4.01146 17.1888 3.82305 17.0628 3.6644 16.904C3.50556 16.7453 3.37956 16.5569 3.29358 16.3495C3.20761 16.1421 3.16336 15.9198 3.16336 15.6953C3.16336 15.4708 3.20761 15.2485 3.29358 15.0411C3.37956 14.8338 3.50556 14.6453 3.6644 14.4867L3.71565 14.4354C3.91256 14.2341 4.04466 13.9784 4.0949 13.7014C4.14514 13.4243 4.11122 13.1385 3.99752 12.8809C3.88924 12.6282 3.70946 12.4128 3.48029 12.261C3.25113 12.1092 2.98259 12.0278 2.70773 12.0267H2.56252C2.10944 12.0267 1.67492 11.8467 1.35455 11.5263C1.03417 11.206 0.854187 10.7714 0.854187 10.3184C0.854187 9.86528 1.03417 9.43075 1.35455 9.11038C1.67492 8.79 2.10944 8.61002 2.56252 8.61002H2.6394C2.92212 8.60341 3.19632 8.51189 3.42634 8.34737C3.65636 8.18285 3.83157 7.95294 3.92919 7.68752C4.04289 7.42989 4.07681 7.1441 4.02657 6.86702C3.97632 6.58993 3.84423 6.33425 3.64731 6.13294L3.59606 6.08169C3.43723 5.92303 3.31122 5.73462 3.22525 5.52723C3.13928 5.31984 3.09503 5.09754 3.09503 4.87304C3.09503 4.64854 3.13928 4.42624 3.22525 4.21885C3.31122 4.01146 3.43723 3.82305 3.59606 3.6644C3.75472 3.50556 3.94313 3.37956 4.15052 3.29358C4.35791 3.20761 4.58021 3.16336 4.80471 3.16336C5.02921 3.16336 5.25151 3.20761 5.4589 3.29358C5.66629 3.37956 5.8547 3.50556 6.01335 3.6644L6.0646 3.71565C6.26591 3.91256 6.5216 4.04466 6.79868 4.0949C7.07577 4.14514 7.36156 4.11122 7.61919 3.99752H7.68752C7.94016 3.88924 8.15562 3.70946 8.30738 3.48029C8.45915 3.25113 8.54059 2.98259 8.54169 2.70773V2.56252C8.54169 2.10944 8.72167 1.67492 9.04205 1.35455C9.36242 1.03417 9.79694 0.854187 10.25 0.854187C10.7031 0.854187 11.1376 1.03417 11.458 1.35455C11.7784 1.67492 11.9584 2.10944 11.9584 2.56252V2.6394C11.9594 2.91425 12.0409 3.1828 12.1927 3.41196C12.3444 3.64112 12.5599 3.82091 12.8125 3.92919C13.0702 4.04289 13.3559 4.07681 13.633 4.02657C13.9101 3.97632 14.1658 3.84423 14.3671 3.64731L14.4184 3.59606C14.577 3.43723 14.7654 3.31122 14.9728 3.22525C15.1802 3.13928 15.4025 3.09503 15.627 3.09503C15.8515 3.09503 16.0738 3.13928 16.2812 3.22525C16.4886 3.31122 16.677 3.43723 16.8356 3.59606C16.9945 3.75472 17.1205 3.94313 17.2065 4.15052C17.2924 4.35791 17.3367 4.58021 17.3367 4.80471C17.3367 5.02921 17.2924 5.25151 17.2065 5.4589C17.1205 5.66629 16.9945 5.8547 16.8356 6.01335L16.7844 6.0646C16.5875 6.26591 16.4554 6.5216 16.4051 6.79868C16.3549 7.07577 16.3888 7.36156 16.5025 7.61919V7.68752C16.6108 7.94016 16.7906 8.15562 17.0197 8.30738C17.2489 8.45915 17.5175 8.54059 17.7923 8.54169H17.9375C18.3906 8.54169 18.8251 8.72167 19.1455 9.04205C19.4659 9.36242 19.6459 9.79694 19.6459 10.25C19.6459 10.7031 19.4659 11.1376 19.1455 11.458C18.8251 11.7784 18.3906 11.9584 17.9375 11.9584H17.8606C17.5858 11.9594 17.3172 12.0409 17.0881 12.1927C16.8589 12.3444 16.6791 12.5599 16.5709 12.8125V12.8125Z" stroke="white" stroke-width="2" stroke-linecap="round" stroke-linejoin="round"/>
</g>
<defs>
<clipPath id="clip0_9_411">
<rect width="20.5" height="20.5" fill="white"/>
</clipPath>
</defs>
</svg>
